# xmcd
#
# Track frame offsets:
#	150
#	12983
#	36445
#	50530
#	71509
#	88887
#	106065
#	119365
#	143898
#	170859
#	184743
#	198762
#	227273
#	237345
#
# Disc length: 3344 seconds
#
# Revision: 0
# Processed by: cddbd v1.5.1PL0 Copyright (c) Steve Scherf et al.
# Submitted via: dBpowerAMP V4.0
#
DISCID=be0d0e0e
DTITLE=Barbecue Bob and the Spareribs - After School Special
DYEAR=1996
DGENRE=Blues
TTITLE0=Bad Luck Boy
TTITLE1=Take A Fools Advice
TTITLE2=Victim Of Success
TTITLE3=You Put A Buzz On Me
TTITLE4=Drivin' Me Crazy
TTITLE5=Swamp Thing
TTITLE6=Drinkin' and Gamblin'
TTITLE7=Youre Not Around
TTITLE8=Nothin' Shakin'
TTITLE9=I Got A Hole In My Soul
TTITLE10=Lookin' For A Girl
TTITLE11=Call Me Gone
TTITLE12=Doin' Time
TTITLE13=Instrumental
EXTD=
EXTT0=
EXTT1=
EXTT2=
EXTT3=
EXTT4=
EXTT5=
EXTT6=
EXTT7=
EXTT8=
EXTT9=
EXTT10=
EXTT11=
EXTT12=
EXTT13=
PLAYORDER=
